<svg width="30" height="27" viewBox="0 0 30 27" fill="none" xmlns="http://www.w3.org/2000/svg">
<g filter="url(#filter0_d_5_501)">
<path d="M7.51651 16.153C7.43966 16.0877 7.33301 16.0502 7.22429 16.0502C7.11557 16.0502 7.00891 16.0877 6.93202 16.153C6.85513 16.2183 6.8109 16.3089 6.8109 16.4012C6.8109 16.4935 6.85509 16.5841 6.93202 16.6493C7.00891 16.7146 7.11557 16.7522 7.22429 16.7522C7.33301 16.7522 7.43966 16.7147 7.51651 16.6493C7.5934 16.5841 7.63768 16.4935 7.63768 16.4012C7.63768 16.3089 7.59345 16.2183 7.51651 16.153Z" fill="#6C0603"/>
<path d="M23.4095 6.60553C23.3326 6.54021 23.2263 6.50269 23.1172 6.50269C23.0085 6.50269 22.9018 6.54021 22.8249 6.60553C22.7481 6.67082 22.7038 6.76139 22.7038 6.85371C22.7038 6.94602 22.748 7.03659 22.8249 7.10184C22.9018 7.16713 23.0085 7.20472 23.1172 7.20472C23.2263 7.20472 23.3326 7.16717 23.4095 7.10184C23.4867 7.03659 23.531 6.94602 23.531 6.85371C23.531 6.76139 23.4867 6.67082 23.4095 6.60553Z" fill="#6C0603"/>
<path d="M25.044 0.286835C24.9664 0.221018 24.8612 0.184021 24.7516 0.184021L14.5824 0.184477C14.3541 0.184477 14.1691 0.341664 14.1691 0.535497V1.53931L10.2506 2.43086C10.03 2.48106 9.89916 2.67352 9.95828 2.86076L11.9891 9.29642L10.2323 10.7882C10.0087 10.511 9.63323 10.3287 9.20855 10.3287H5.24013C4.5563 10.3287 4 10.8011 4 11.3817V17.1032C4 17.6838 4.5563 18.1562 5.24013 18.1562H9.20859C9.78953 18.1562 10.2782 17.8152 10.4122 17.3566L10.9037 17.7206C11.2832 18.0015 11.7693 18.1563 12.2728 18.1563H24.7517C24.9799 18.1563 25.165 17.9991 25.165 17.8052V0.535041C25.165 0.44195 25.1215 0.352651 25.044 0.286835ZM9.6219 17.1032C9.6219 17.2967 9.43645 17.4542 9.20851 17.4542H5.24009C5.01214 17.4542 4.8267 17.2968 4.8267 17.1032V11.3817C4.8267 11.1882 5.01214 11.0307 5.24009 11.0307H6.81093V15.0743C6.81093 15.2681 6.99604 15.4253 7.22432 15.4253C7.45259 15.4253 7.63771 15.2681 7.63771 15.0743V11.0307H9.20855C9.43649 11.0307 9.62194 11.1882 9.62194 11.3817V17.1032H9.6219ZM10.8638 3.01812L14.1691 2.26609V3.5668L13.892 3.62984C13.7861 3.65395 13.6958 3.71275 13.641 3.79338C13.5862 3.87401 13.5713 3.9698 13.5997 4.05973C13.7586 4.56313 13.4055 5.08239 12.8127 5.21729C12.7066 5.24144 12.6162 5.30034 12.5614 5.38115C12.5067 5.46192 12.4919 5.55788 12.5206 5.64789L14.1319 10.7144H13.3022L12.8747 9.29407C12.8611 9.24886 12.8373 9.20719 12.8054 9.17096L10.8638 3.01812ZM14.1691 5.17654V8.13848L13.4151 5.76786C13.73 5.62977 13.9878 5.42316 14.1691 5.17654ZM20.108 17.4542H12.2727C11.969 17.4542 11.6758 17.3609 11.447 17.1914L10.4487 16.4522V11.5973L12.2535 10.0648L12.5808 11.1523C12.6276 11.3077 12.7924 11.4164 12.9813 11.4164L21.1087 11.4168C21.4278 11.4168 21.6874 11.6372 21.6874 11.9082C21.6874 12.1792 21.4278 12.3996 21.1087 12.3996H16.9442C16.7159 12.3996 16.5308 12.5568 16.5308 12.7507C16.5308 12.9445 16.7159 13.1017 16.9442 13.1017H22.4026C22.7217 13.1017 22.9814 13.3221 22.9814 13.5931C22.9814 13.8641 22.7217 14.0845 22.4026 14.0845H16.9442C16.7159 14.0845 16.5308 14.2417 16.5308 14.4356C16.5308 14.6294 16.7159 14.7866 16.9442 14.7866H21.5181C21.8372 14.7866 22.0968 15.007 22.0968 15.278C22.0968 15.549 21.8372 15.7694 21.5181 15.7694H16.9442C16.7159 15.7694 16.5308 15.9266 16.5308 16.1205C16.5308 16.3143 16.7159 16.4715 16.9442 16.4715H20.108C20.4271 16.4715 20.6867 16.6919 20.6867 16.9629C20.6867 17.2337 20.4271 17.4542 20.108 17.4542ZM24.3383 17.4542H24.3382H21.3883C21.4685 17.3042 21.5135 17.1379 21.5135 16.9628C21.5135 16.7876 21.4685 16.6213 21.3883 16.4713H21.5181C22.2931 16.4713 22.9236 15.936 22.9236 15.2779C22.9236 15.086 22.8696 14.9046 22.7744 14.7438C23.3695 14.605 23.8081 14.1418 23.8081 13.593C23.8081 13.3268 23.7048 13.0807 23.5306 12.882V8.43323C23.5306 8.23939 23.3455 8.08221 23.1172 8.08221C22.889 8.08221 22.7038 8.23939 22.7038 8.43323V12.4275C22.6067 12.4095 22.506 12.3996 22.4025 12.3996H22.389C22.4691 12.2497 22.5141 12.0834 22.5141 11.9082C22.5141 11.2501 21.8836 10.7148 21.1087 10.7148H20.4441C21.1497 10.4578 21.6453 9.8623 21.6453 9.17012C21.6453 8.24382 20.7579 7.49021 19.667 7.49021C18.5761 7.49021 17.6886 8.24382 17.6886 9.17012C17.6886 9.8623 18.1842 10.4578 18.8898 10.7148H16.6301V4.04043C17.3685 3.90378 17.9513 3.40901 18.1122 2.78192H21.2217C21.3826 3.40901 21.9653 3.90378 22.7038 4.04043V5.13175C22.7038 5.32558 22.8889 5.48277 23.1172 5.48277C23.3455 5.48277 23.5306 5.32558 23.5306 5.13175V3.72704C23.5306 3.5332 23.3455 3.37602 23.1172 3.37602C22.5034 3.37602 22.0042 2.95202 22.0042 2.4309C22.0042 2.23706 21.8191 2.07988 21.5908 2.07988H17.7431C17.5148 2.07988 17.3297 2.23706 17.3297 2.4309C17.3297 2.95206 16.8304 3.37602 16.2167 3.37602C15.9884 3.37602 15.8033 3.5332 15.8033 3.72704V10.7147H14.9959V0.886446L24.3383 0.88606V17.4542ZM19.667 10.148C19.032 10.148 18.5155 9.70932 18.5155 9.17016C18.5155 8.63099 19.0321 8.19229 19.667 8.19229C20.302 8.19229 20.8186 8.63096 20.8186 9.17012C20.8186 9.70929 20.302 10.148 19.667 10.148Z" fill="#6C0603"/>
</g>
<defs>
<filter id="filter0_d_5_501" x="-1.90735e-06" y="0.184021" width="29.165" height="25.9722" filterUnits="userSpaceOnUse" color-interpolation-filters="sRGB">
<feFlood flood-opacity="0" result="BackgroundImageFix"/>
<feColorMatrix in="SourceAlpha" type="matrix" values="0 0 0 0 0 0 0 0 0 0 0 0 0 0 0 0 0 0 127 0" result="hardAlpha"/>
<feOffset dy="4"/>
<feGaussianBlur stdDeviation="2"/>
<feComposite in2="hardAlpha" operator="out"/>
<feColorMatrix type="matrix" values="0 0 0 0 0 0 0 0 0 0 0 0 0 0 0 0 0 0 0.25 0"/>
<feBlend mode="normal" in2="BackgroundImageFix" result="effect1_dropShadow_5_501"/>
<feBlend mode="normal" in="SourceGraphic" in2="effect1_dropShadow_5_501" result="shape"/>
</filter>
</defs>
</svg>
