<svg width="50" height="50" viewBox="0 0 50 50" fill="none" xmlns="http://www.w3.org/2000/svg">
<path d="M38.8067 40.0052L39.1602 40.3604L39.5146 40.006L42.3178 37.2029H42.382L42.5316 37.0284C42.6135 36.933 42.7417 36.8917 42.8631 36.9209C42.9847 36.9501 43.0797 37.045 43.1091 37.1671L43.1091 37.1673C43.1383 37.2888 43.0969 37.4167 43.0019 37.498L42.9881 37.5098L42.9752 37.5226L39.4007 41.0638L39.4007 41.0638L39.3977 41.0668C39.3348 41.1302 39.2497 41.1655 39.1611 41.1655C39.072 41.1655 38.9869 41.1299 38.9249 41.0673L38.9231 41.0654L36.565 38.7074C36.4336 38.5759 36.4336 38.3628 36.565 38.2314C36.6963 38.1 36.9092 38.0999 37.0407 38.2311C37.0408 38.2312 37.0409 38.2313 37.041 38.2314L38.8067 40.0052Z" fill="#6C0603" stroke="#6C0603"/>
<path d="M39.4943 27.996V27.496V26.6628C39.4943 25.0063 40.8373 23.6632 42.4939 23.6632C42.6779 23.6632 42.8271 23.514 42.8271 23.33C42.8271 23.146 42.6779 22.9968 42.4939 22.9968C40.4693 22.9968 38.8278 24.6383 38.8278 26.6628V27.496V27.996H38.3278H35.8282C35.6442 27.996 35.495 28.1453 35.495 28.3292V30.9123V31.2331L35.2033 31.3668C31.144 33.2274 28.9289 37.6644 29.8809 42.0267L39.4943 27.996ZM39.4943 27.996H39.9943M39.4943 27.996H39.9943M39.9943 27.996H42.4939C42.6779 27.996 42.8271 28.1453 42.8271 28.3292V30.9123V31.2331M39.9943 27.996L42.8271 31.2331M42.8271 31.2331L43.1188 31.3668M42.8271 31.2331L43.1188 31.3668M43.1188 31.3668C47.1781 33.2274 49.3932 37.6644 48.4412 42.0268C47.4889 46.3896 43.6262 49.5001 39.161 49.5001C34.6955 49.5001 30.8332 46.3896 29.8809 42.0268L43.1188 31.3668ZM38.2801 48.824L38.8278 48.8765V48.3263V47.4931C38.8278 47.3091 38.9771 47.1599 39.161 47.1599C39.345 47.1599 39.4943 47.3091 39.4943 47.4931V48.3263H39.9943L40.042 48.824C44.2536 48.4204 47.5872 45.0868 47.9909 40.8751L48.0434 40.3274H47.4932H46.66C46.476 40.3274 46.3267 40.1782 46.3267 39.9942C46.3267 39.8102 46.476 39.661 46.66 39.661H47.4932H48.0484L47.9904 39.1088C47.642 35.7896 45.4524 32.9506 42.3306 31.7699C42.2035 31.7202 42.1198 31.5981 42.1192 31.4613V29.1625V28.6625H41.6192H36.6199H36.1199V29.1625V31.4608C36.1192 31.5986 36.0344 31.7211 35.9066 31.7705L35.9046 31.7712C32.8164 32.9779 30.6644 35.8121 30.3315 39.1108L30.2759 39.661H30.8289H31.6621C31.8461 39.661 31.9953 39.8102 31.9953 39.9942C31.9953 40.1782 31.8461 40.3274 31.6621 40.3274H30.8289H30.2787L30.3312 40.8751C30.7349 45.0868 34.0685 48.4204 38.2801 48.824Z" fill="#6C0603" stroke="#6C0603"/>
<path d="M26.8377 43.827H26.8491L26.8604 43.8265C26.9528 43.8223 27.0428 43.8569 27.1089 43.922C27.1703 43.9845 27.2048 44.0695 27.2043 44.1575V44.1603C27.2043 44.2589 27.2039 44.3188 27.2003 44.3643C27.1726 44.3736 27.1292 44.3857 27.064 44.3981C26.8366 44.4415 26.4651 44.4675 25.8483 44.4806C25.2397 44.4934 24.4259 44.4935 23.3299 44.4935H4.16606C2.14151 44.4935 0.5 42.852 0.5 40.8274V8.33212C0.5 6.30757 2.14151 4.66606 4.16606 4.66606H5.83249H6.33249V4.16606V3.33285C6.33249 1.76844 7.60092 0.5 9.16534 0.5C9.34933 0.5 9.49855 0.649216 9.49855 0.833212C9.49855 1.01721 9.34933 1.16642 9.16534 1.16642C7.96892 1.16642 6.99891 2.13643 6.99891 3.33285V6.6657C6.99891 7.86212 7.96892 8.83212 9.16534 8.83212C10.3618 8.83212 11.3318 7.86212 11.3318 6.6657V3.33285C11.3318 3.14885 11.481 2.99964 11.665 2.99964C11.849 2.99964 11.9982 3.14885 11.9982 3.33285V4.16606V4.66606H12.4982H19.9971H20.4971V4.16606V3.33285C20.4971 1.76844 21.7655 0.5 23.3299 0.5C23.5139 0.5 23.6632 0.649216 23.6632 0.833212C23.6632 1.01721 23.5139 1.16642 23.3299 1.16642C22.1335 1.16642 21.1635 2.13643 21.1635 3.33285V6.6657C21.1635 7.86212 22.1335 8.83212 23.3299 8.83212C24.5264 8.83212 25.4964 7.86212 25.4964 6.6657V3.33285C25.4964 3.14885 25.6456 2.99964 25.8296 2.99964C26.0136 2.99964 26.1628 3.14885 26.1628 3.33285V4.16606V4.66606H26.6628H34.1617H34.6617V4.16606V3.33285C34.6617 1.76844 35.9301 0.5 37.4946 0.5C37.6786 0.5 37.8278 0.649216 37.8278 0.833212C37.8278 1.01721 37.6786 1.16642 37.4946 1.16642C36.2981 1.16642 35.3281 2.13643 35.3281 3.33285V6.6657C35.3281 7.86212 36.2981 8.83212 37.4946 8.83212C38.691 8.83212 39.661 7.86212 39.661 6.6657V3.33285C39.661 3.14885 39.8102 2.99964 39.9942 2.99964C40.1782 2.99964 40.3274 3.14885 40.3274 3.33285V4.16606V4.66606H40.8274H42.4938C44.5184 4.66606 46.1599 6.30757 46.1599 8.33212V29.5457C46.1599 29.7297 46.0107 29.8789 45.8267 29.8789C45.6427 29.8789 45.4935 29.7297 45.4935 29.5457V14.1646V13.6646H44.9935H1.66642H1.16642V14.1646V40.8274C1.16642 42.484 2.5095 43.827 4.16606 43.827V43.327C4.16606 43.827 4.16615 43.827 4.16632 43.827H4.16709H4.16837H4.17016H4.17246H4.17526H4.17856H4.18237H4.18667H4.19147H4.19677H4.20256H4.20884H4.21561H4.22286H4.2306H4.23883H4.24753H4.25671H4.26637H4.27651H4.28711H4.29819H4.30974H4.32175H4.33423H4.34717H4.36058H4.37444H4.38875H4.40353H4.41875H4.43443H4.45055H4.46713H4.48414H4.5016H4.5195H4.53784H4.55662H4.57583H4.59547H4.61555H4.63605H4.65698H4.67833H4.70011H4.72231H4.74492H4.76796H4.79141H4.81527H4.83954H4.86422H4.88931H4.9148H4.94069H4.96699H4.99368H5.02077H5.04826H5.07613H5.1044H5.13306H5.1621H5.19153H5.22134H5.25154H5.28211H5.31305H5.34438H5.37607H5.40814H5.44057H5.47337H5.50654H5.54006H5.57395H5.6082H5.6428H5.67776H5.71307H5.74873H5.78474H5.8211H5.8578H5.89485H5.93223H5.96995H6.00801H6.04641H6.08514H6.12419H6.16358H6.20329H6.24333H6.28369H6.32437H6.36537H6.40668H6.44831H6.49026H6.53251H6.57507H6.61794H6.66111H6.70459H6.74836H6.79244H6.83681H6.88148H6.92643H6.97168H7.01722H7.06304H7.10915H7.15554H7.20221H7.24916H7.29639H7.34389H7.39166H7.4397H7.48802H7.5366H7.58544H7.63454H7.68391H7.73353H7.78341H7.83355H7.88394H7.93458H7.98546H8.03659H8.08797H8.13959H8.19145H8.24355H8.29589H8.34846H8.40126H8.45429H8.50755H8.56104H8.61475H8.66868H8.72284H8.77721H8.8318H8.8866H8.94162H8.99684H9.05228H9.10792H9.16376H9.21981H9.27606H9.33251H9.38915H9.44599H9.50301H9.56023H9.61764H9.67524H9.73302H9.79098H9.84912H9.90744H9.96593H10.0246H10.0834H10.1425H10.2016H10.261H10.3205H10.3802H10.44H10.5H10.5601H10.6205H10.6809H10.7415H10.8023H10.8632H10.9242H10.9854H11.0467H11.1082H11.1698H11.2315H11.2934H11.3554H11.4175H11.4798H11.5421H11.6046H11.6673H11.73H11.7929H11.8558H11.9189H11.9821H12.0454H12.1088H12.1723H12.2359H12.2996H12.3634H12.4273H12.4913H12.5554H12.6196H12.6839H12.7482H12.8127H12.8772H12.9418H13.0065H13.0712H13.1361H13.201H13.266H13.331H13.3961H13.4613H13.5265H13.5918H13.6572H13.7226H13.788H13.8535H13.9191H13.9847H14.0504H14.1161H14.1818H14.2476H14.3134H14.3793H14.4452H14.5111H14.5771H14.643H14.7091H14.7751H14.8411H14.9072H14.9733H15.0394H15.1055H15.1717H15.2378H15.304H15.3701H15.4363H15.5025H15.5686H15.6348H15.7009H15.7671H15.8332H15.8994H15.9655H16.0316H16.0977H16.1638H16.2298H16.2959H16.3619H16.4279H16.4938H16.5597H16.6256H16.6915H16.7573H16.8231H16.8888H16.9545H17.0202H17.0858H17.1514H17.2169H17.2824H17.3478H17.4131H17.4784H17.5436H17.6088H17.6739H17.739H17.8039H17.8688H17.9337H17.9984H18.0631H18.1277H18.1922H18.2567H18.321H18.3853H18.4495H18.5136H18.5776H18.6415H18.7053H18.769H18.8326H18.8961H18.9595H19.0228H19.086H19.1491H19.2121H19.2749H19.3377H19.4003H19.4628H19.5251H19.5874H19.6495H19.7115H19.7734H19.8351H19.8967H19.9582H20.0195H20.0807H20.1417H20.2026H20.2634H20.324H20.3845H20.4448H20.5049H20.5649H20.6247H20.6844H20.7439H20.8033H20.8625H20.9215H20.9803H21.039H21.0975H21.1558H21.2139H21.2719H21.3297H21.3873H21.4447H21.5019H21.5589H21.6158H21.6724H21.7288H21.7851H21.8411H21.897H21.9526H22.0081H22.0633H22.1183H22.1731H22.2277H22.2821H22.3362H22.3902H22.4439H22.4974H22.5506H22.6036H22.6564H22.709H22.7614H22.8134H22.8653H22.9169H22.9683H23.0194H23.0703H23.121H23.1713H23.2215H23.2714H23.321H23.3704H23.4195H23.4683H23.5169H23.5652H23.6132H23.661H23.7085H23.7557H23.8027H23.8494H23.8957H23.9418H23.9877H24.0332H24.0785H24.1234H24.1681H24.2125H24.2565H24.3003H24.3438H24.3869H24.4298H24.4724H24.5146H24.5566H24.5982H24.6395H24.6805H24.7212H24.7616H24.8016H24.8413H24.8807H24.9197H24.9585H24.9969H25.0349H25.0726H25.11H25.1471H25.1838H25.2201H25.2561H25.2918H25.3271H25.3621H25.3967H25.4309H25.4648H25.4983H25.5315H25.5643H25.5967H25.6288H25.6605H25.6918H25.7228H25.7533H25.7835H25.8133H25.8428H25.8718H25.9005H25.9287H25.9566H25.9841H26.0112H26.0379H26.0642H26.0901H26.1156H26.1406H26.1653H26.1896H26.2135H26.2369H26.2599H26.2825H26.3047H26.3265H26.3479H26.3688H26.3893H26.4094H26.429H26.4482H26.467H26.4853H26.5032H26.5207H26.5377H26.5543H26.5704H26.5861H26.6013H26.6161H26.6304H26.6443H26.6577H26.6706H26.6831H26.6951H26.7066H26.7177H26.7283H26.7385H26.7481H26.7573H26.766H26.7742H26.782H26.7892H26.796H26.8023H26.8081H26.8134H26.8182H26.8225H26.8263H26.8296H26.8324H26.8347H26.8365H26.8377ZM27.2426 44.3464C27.2427 44.3464 27.2419 44.3469 27.24 44.348C27.2416 44.3469 27.2425 44.3464 27.2426 44.3464ZM6.33249 5.83249V5.33249H5.83249H4.16606C2.5095 5.33249 1.16642 6.67557 1.16642 8.33212V12.4982V12.9982H1.66642H44.9935H45.4935V12.4982V8.33212C45.4935 6.67557 44.1504 5.33249 42.4938 5.33249H40.8274H40.3274V5.83249V6.6657C40.3274 8.23011 39.059 9.49855 37.4946 9.49855C35.9301 9.49855 34.6617 8.23011 34.6617 6.6657V5.83249V5.33249H34.1617H26.6628H26.1628V5.83249V6.6657C26.1628 8.23011 24.8944 9.49855 23.3299 9.49855C21.7655 9.49855 20.4971 8.23011 20.4971 6.6657V5.83249V5.33249H19.9971H12.4982H11.9982V5.83249V6.6657C11.9982 8.23011 10.7297 9.49855 9.16534 9.49855C7.60092 9.49855 6.33249 8.23011 6.33249 6.6657V5.83249Z" fill="#6C0603" stroke="#6C0603"/>
<path d="M13.3315 23.8299H13.8315V23.3299V18.3307V17.8307H13.3315H8.3322H7.8322V18.3307V23.3299V23.8299H8.3322H13.3315ZM14.1647 17.1642C14.3487 17.1642 14.4979 17.3135 14.4979 17.4975V24.1632C14.4979 24.3472 14.3487 24.4964 14.1647 24.4964H7.49898C7.31499 24.4964 7.16577 24.3472 7.16577 24.1632V17.4975C7.16577 17.3135 7.31499 17.1642 7.49898 17.1642H14.1647Z" fill="#6C0603" stroke="#6C0603"/>
<path d="M13.3315 35.4949H13.8315V34.9949V32.4953C13.8315 32.3113 13.9807 32.1621 14.1647 32.1621C14.3487 32.1621 14.4979 32.3113 14.4979 32.4953V35.8281C14.4979 36.0121 14.3487 36.1613 14.1647 36.1613H7.49898C7.31499 36.1613 7.16577 36.0121 7.16577 35.8281V29.1624C7.16577 28.9784 7.31499 28.8292 7.49898 28.8292H14.1647C14.3487 28.8292 14.4979 28.9784 14.4979 29.1624C14.4979 29.3464 14.3487 29.4956 14.1647 29.4956H8.3322H7.8322V29.9956V34.9949V35.4949H8.3322H13.3315Z" fill="#6C0603" stroke="#6C0603"/>
<path d="M24.9965 35.4949H25.4965V34.9949V29.9956V29.4956H24.9965H19.9972H19.4972V29.9956V34.9949V35.4949H19.9972H24.9965ZM18.8308 29.1624C18.8308 28.9784 18.98 28.8292 19.164 28.8292H25.8297C26.0137 28.8292 26.1629 28.9784 26.1629 29.1624V35.8281C26.1629 36.0121 26.0137 36.1613 25.8297 36.1613H19.164C18.98 36.1613 18.8308 36.0121 18.8308 35.8281V29.1624Z" fill="#6C0603" stroke="#6C0603"/>
<path d="M31.6621 17.8307H31.1621V18.3307V24.1632C31.1621 24.3472 31.0129 24.4964 30.8289 24.4964C30.6449 24.4964 30.4957 24.3472 30.4957 24.1632V17.4975C30.4957 17.3135 30.6449 17.1642 30.8289 17.1642H37.4946C37.6786 17.1642 37.8278 17.3135 37.8278 17.4975V22.4967C37.8278 22.6807 37.6786 22.8299 37.4946 22.8299C37.3106 22.8299 37.1614 22.6807 37.1614 22.4967V18.3307V17.8307H36.6614H31.6621Z" fill="#6C0603" stroke="#6C0603"/>
<path d="M25.5922 17.2589L25.5936 17.2576C25.6556 17.195 25.7407 17.1594 25.8297 17.1594C25.9184 17.1594 26.0035 17.1947 26.0663 17.2581L26.0663 17.2581L26.0695 17.2613C26.1322 17.3233 26.1678 17.4084 26.1678 17.4975C26.1678 17.5865 26.1322 17.6716 26.0695 17.7336L26.0682 17.7349L23.3188 20.4762L22.9637 20.8303L23.3188 21.1844L26.0682 23.9257L26.0695 23.927C26.1322 23.989 26.1678 24.0741 26.1678 24.1632C26.1678 24.2522 26.1322 24.3373 26.0695 24.3993L26.0695 24.3993L26.0663 24.4025C26.0035 24.4659 25.9184 24.5012 25.8297 24.5012C25.7407 24.5012 25.6556 24.4657 25.5936 24.403L25.5922 24.4017L22.8509 21.6522L22.4969 21.2971L22.1428 21.6522L19.4015 24.4017L19.4006 24.4025C19.3378 24.4659 19.2527 24.5012 19.164 24.5012C19.075 24.5012 18.9899 24.4657 18.9279 24.403L18.9279 24.403L18.9242 24.3993C18.8615 24.3373 18.8259 24.2522 18.8259 24.1632C18.8259 24.0741 18.8615 23.989 18.9242 23.927L18.9255 23.9257L21.6749 21.1844L22.0301 20.8303L21.6749 20.4762L18.926 17.7355C18.926 17.7354 18.9259 17.7353 18.9258 17.7352C18.7946 17.6038 18.7947 17.3908 18.926 17.2595C19.0574 17.1281 19.2704 17.128 19.4018 17.2593C19.4019 17.2593 19.402 17.2594 19.402 17.2595L22.1428 20.0084L22.4969 20.3635L22.8509 20.0084L25.5922 17.2589Z" fill="#6C0603" stroke="#6C0603"/>
</svg>
